<svg xmlns="http://www.w3.org/2000/svg" width="860" height="260" viewBox="0 0 860 260" role="img" aria-label="SharipovAI OS">
  <defs>
    <linearGradient id="silver" x1="0" y1="0" x2="1" y2="1">
      <stop offset="0" stop-color="#ffffff"/>
      <stop offset=".38" stop-color="#c0c0c0"/>
      <stop offset=".72" stop-color="#f4f8ff"/>
      <stop offset="1" stop-color="#8f9baa"/>
    </linearGradient>
    <linearGradient id="cyan" x1="0" y1="1" x2="1" y2="0">
      <stop offset="0" stop-color="#1e90ff"/>
      <stop offset="1" stop-color="#00d2ff"/>
    </linearGradient>
    <filter id="glow" x="-30%" y="-30%" width="160%" height="160%">
      <feGaussianBlur stdDeviation="5" result="blur"/>
      <feMerge>
        <feMergeNode in="blur"/>
        <feMergeNode in="SourceGraphic"/>
      </feMerge>
    </filter>
  </defs>
  <rect width="860" height="260" rx="28" fill="#0d1117"/>
  <rect x="12" y="12" width="836" height="236" rx="22" fill="#1b1f24" stroke="#26313d"/>
  <g transform="translate(48 43)">
    <rect x="0" y="0" width="170" height="170" rx="30" fill="#0d1117" stroke="#1e90ff" stroke-width="3"/>
    <path d="M29 121 L56 49 H76 L104 121 H82 L77 107 H54 L49 121 Z M59 89 H72 L66 70 Z" fill="url(#silver)"/>
    <path d="M101 121 L128 49 H149 L121 121 Z" fill="url(#cyan)" filter="url(#glow)"/>
    <path d="M115 121 L140 121 L132 101 L106 101 Z" fill="url(#silver)"/>
    <path d="M30 139 H142" stroke="#00d2ff" stroke-width="5" stroke-linecap="round" opacity=".9"/>
  </g>
  <g transform="translate(256 70)">
    <text x="0" y="48" font-family="Inter, Segoe UI, Arial, sans-serif" font-size="50" font-weight="800" fill="url(#silver)">SharipovAI OS</text>
    <text x="3" y="91" font-family="Inter, Segoe UI, Arial, sans-serif" font-size="22" font-weight="600" fill="#c0c0c0">Smarter. Data. Decisions.</text>
    <path d="M5 124 H344" stroke="url(#cyan)" stroke-width="4" stroke-linecap="round" opacity=".85"/>
  </g>
  <g transform="translate(674 60)" filter="url(#glow)">
    <rect x="0" y="82" width="18" height="58" rx="5" fill="#1e90ff"/>
    <rect x="32" y="54" width="18" height="86" rx="5" fill="#00d2ff"/>
    <rect x="64" y="22" width="18" height="118" rx="5" fill="#c0c0c0"/>
    <rect x="96" y="42" width="18" height="98" rx="5" fill="#00d2ff"/>
    <rect x="128" y="72" width="18" height="68" rx="5" fill="#1e90ff"/>
    <path d="M0 70 C32 36 68 20 101 42 C119 54 132 55 150 28" fill="none" stroke="#00d2ff" stroke-width="5" stroke-linecap="round"/>
  </g>
</svg>
