<svg xmlns="http://www.w3.org/2000/svg" viewBox="0 0 660 310"><defs><linearGradient id="m" x1="0" y1="0" x2="0" y2="1"><stop stop-color="#fff"/><stop offset=".45" stop-color="#bfc7d1"/><stop offset="1" stop-color="#5f6874"/></linearGradient><linearGradient id="b" x1="0" y1="0" x2="1" y2="1"><stop stop-color="#20d8ff"/><stop offset="1" stop-color="#0868ff"/></linearGradient><filter id="g"><feGaussianBlur stdDeviation="5" result="x"/><feMerge><feMergeNode in="x"/><feMergeNode in="SourceGraphic"/></feMerge></filter></defs><g transform="translate(56 18)" filter="url(#g)"><path fill="url(#m)" d="M48 39h210l-27 42H92c-15 0-22 8-22 19s8 18 22 18h78c34 0 53 19 53 49 0 37-26 62-68 62H26l29-43h102c16 0 24-7 24-20 0-12-9-18-25-18H78c-34 0-52-19-52-49 0-37 24-60 68-60z"/><path fill="url(#m)" d="M260 229l86-190 88 190h-52l-38-89-40 89z"/><path fill="url(#b)" d="M341 143l53 47-33 8z"/><g fill="url(#b)" stroke="#69ecff" stroke-width="2"><rect x="438" y="108" width="13" height="55"/><rect x="468" y="84" width="13" height="72"/><rect x="498" y="58" width="13" height="92"/><rect x="528" y="30" width="13" height="112"/></g><g stroke="#0868ff" stroke-width="4"><path d="M444 96v82"/><path d="M474 70v104"/><path d="M504 44v116"/><path d="M534 15v142"/></g></g><text x="330" y="270" text-anchor="middle" font-family="Arial,sans-serif" font-size="45" letter-spacing="10" fill="url(#m)">SHARIPOV<tspan fill="url(#b)">AI</tspan></text><text x="330" y="300" text-anchor="middle" font-family="Arial,sans-serif" font-size="16" letter-spacing="8" fill="#aeb7c2">SMARTER. <tspan fill="#168cff">DATA.</tspan> DECISIONS.</text></svg>